<?xml version="1.0" standalone="no"?>
<!DOCTYPE svg PUBLIC "-//W3C//DTD SVG 20010904//EN"
 "http://www.w3.org/TR/2001/REC-SVG-20010904/DTD/svg10.dtd">
<svg version="1.0" xmlns="http://www.w3.org/2000/svg"
 width="1000.000000pt" height="1000.000000pt" viewBox="0 0 1000.000000 1000.000000"
 preserveAspectRatio="xMidYMid meet">
<metadata>
Created by potrace 1.11, written by Peter Selinger 2001-2013
</metadata>
<g transform="translate(0.000000,1000.000000) scale(0.100000,-0.100000)"
fill="#000000" stroke="none">
<path d="M10 8800 c0 -5 11 -29 24 -52 13 -24 52 -97 86 -163 34 -66 79 -151
100 -190 20 -38 68 -128 105 -200 64 -122 89 -170 205 -390 26 -49 76 -144
110 -210 34 -66 79 -151 100 -190 21 -38 68 -128 105 -200 37 -71 86 -164 108
-205 47 -90 128 -244 210 -400 141 -270 240 -456 249 -467 6 -7 8 -13 4 -13
-3 0 4 -17 17 -37 13 -21 40 -72 61 -113 21 -41 55 -106 76 -145 20 -38 68
-128 105 -200 37 -71 84 -161 105 -200 34 -64 65 -124 208 -395 27 -52 70
-133 94 -180 25 -47 76 -143 113 -215 37 -71 87 -166 110 -210 113 -213 231
-437 303 -575 18 -36 52 -101 75 -145 24 -44 80 -152 126 -240 46 -88 101
-191 121 -230 66 -124 126 -237 195 -370 37 -71 87 -166 110 -210 59 -111 132
-250 200 -380 32 -60 79 -150 105 -200 26 -49 73 -139 105 -200 32 -60 77
-146 100 -190 23 -44 68 -129 100 -190 102 -196 147 -280 157 -292 7 -9 253
-11 993 -11 l985 0 56 107 c31 58 74 138 94 176 38 71 95 180 190 360 29 55
70 132 90 170 20 39 61 115 90 170 29 55 72 136 95 180 23 44 64 121 90 170
26 50 65 122 85 160 21 39 63 118 93 176 30 59 71 135 90 170 39 73 112 212
184 349 28 52 69 131 93 175 98 184 130 245 180 340 63 121 216 410 275 520
23 44 62 117 86 163 24 46 60 113 79 150 20 37 71 135 114 217 43 83 82 155
86 160 4 6 42 78 85 160 43 83 90 173 105 200 15 28 55 104 90 170 34 66 75
143 90 170 15 28 58 109 95 180 37 72 80 153 95 180 15 28 55 104 90 170 34
66 75 143 90 170 15 28 53 100 85 160 32 61 74 142 95 180 21 39 63 120 95
180 32 61 72 137 90 170 18 33 61 114 95 180 35 66 75 143 90 170 15 28 49 92
76 143 27 52 65 124 84 160 20 37 62 117 94 177 87 166 126 239 190 360 32 61
81 153 109 205 27 52 63 119 78 148 16 29 29 57 29 62 0 5 -908 8 -2080 8
l-2079 0 -82 -152 c-82 -151 -97 -178 -149 -271 -15 -27 -43 -79 -62 -115 -50
-92 -166 -306 -198 -365 -15 -27 -41 -75 -58 -105 -65 -120 -97 -179 -149
-274 -30 -55 -59 -109 -64 -120 -5 -12 -18 -35 -28 -52 -10 -17 -30 -52 -44
-78 l-25 -48 -138 274 c-75 150 -253 505 -396 789 l-260 517 -2089 0 c-1234 1
-2089 -3 -2089 -8z"/>
<path d="M9969 6747 c-23 -47 -60 -119 -254 -492 -34 -66 -106 -205 -160 -310
-54 -104 -128 -248 -165 -320 -177 -342 -213 -411 -290 -560 -45 -88 -111
-214 -145 -280 -34 -66 -102 -196 -150 -290 -127 -247 -229 -443 -300 -580
-34 -66 -104 -201 -155 -300 -51 -99 -118 -229 -150 -290 -32 -60 -106 -204
-166 -320 -59 -115 -133 -258 -164 -317 -30 -59 -97 -189 -149 -290 -52 -101
-112 -217 -134 -258 -22 -41 -82 -158 -135 -260 -93 -182 -162 -315 -288 -557
-35 -67 -64 -124 -64 -126 0 -3 653 -5 1450 -5 l1450 0 0 2804 c0 1542 -1
2804 -2 2804 -2 0 -15 -24 -29 -53z"/>
<path d="M6 3998 c1 -1536 2 -2796 3 -2800 1 -7 2882 -9 2893 -1 5 2 -25 68
-66 146 -40 78 -115 223 -166 322 -51 99 -116 225 -145 280 -29 55 -94 181
-145 280 -89 173 -155 301 -300 580 -37 72 -107 207 -155 300 -106 206 -216
419 -300 580 -34 66 -99 192 -145 280 -45 88 -115 223 -155 300 -40 77 -108
208 -150 290 -93 180 -193 374 -285 550 -37 72 -107 207 -155 300 -155 300
-256 498 -310 600 -29 55 -96 186 -151 290 -54 105 -133 257 -175 340 -43 82
-81 151 -86 152 -4 2 -7 -1254 -7 -2789z"/>
</g>
</svg>
